<svg width="59" height="56" viewBox="0 0 59 56" fill="none" xmlns="http://www.w3.org/2000/svg">
<g filter="url(#filter0_d_438_1518)">
<path fill-rule="evenodd" clip-rule="evenodd" d="M29.5001 6.66675C22.7104 6.66675 21.859 6.69361 19.1925 6.80716C16.5316 6.92044 14.7142 7.31492 13.1241 7.89176C11.4801 8.48797 10.0859 9.28581 8.69597 10.583C7.30614 11.8802 6.45131 13.1815 5.81252 14.7159C5.19447 16.2 4.77181 17.8962 4.65044 20.3798C4.52878 22.8685 4.5 23.6631 4.5 30.0001C4.5 36.337 4.52878 37.1316 4.65044 39.6204C4.77181 42.1039 5.19447 43.8001 5.81252 45.2843C6.45131 46.8187 7.30614 48.1199 8.69597 49.4172C10.0859 50.7143 11.4801 51.5122 13.1241 52.1085C14.7142 52.6852 16.5316 53.0797 19.1925 53.193C21.859 53.3066 22.7104 53.3334 29.5001 53.3334C36.2896 53.3334 37.1409 53.3066 39.8075 53.193C42.4684 53.0797 44.2858 52.6852 45.8759 52.1085C47.5199 51.5122 48.9141 50.7143 50.304 49.4172C51.6939 48.1199 52.5487 46.8187 53.1876 45.2843C53.8055 43.8001 54.2282 42.1039 54.3496 39.6204C54.4712 37.1316 54.5 36.337 54.5 30.0001C54.5 23.6631 54.4712 22.8685 54.3496 20.3798C54.2282 17.8962 53.8055 16.2 53.1876 14.7159C52.5487 13.1815 51.6939 11.8802 50.304 10.583C48.9141 9.28581 47.5199 8.48797 45.8759 7.89176C44.2858 7.31492 42.4684 6.92044 39.8075 6.80716C37.1409 6.69361 36.2896 6.66675 29.5001 6.66675ZM29.5002 10.8709C36.1754 10.8709 36.9661 10.8947 39.6023 11.007C42.0398 11.1107 43.3635 11.4908 44.2444 11.8104C45.4114 12.2337 46.2442 12.7393 47.1189 13.5558C47.9938 14.3723 48.5356 15.1496 48.9891 16.2387C49.3314 17.0609 49.7387 18.2964 49.8499 20.5714C49.9701 23.0318 49.9956 23.7698 49.9956 30.0001C49.9956 36.2303 49.9701 36.9683 49.8499 39.4287C49.7387 41.7037 49.3314 42.9392 48.9891 43.7614C48.5356 44.8505 47.9938 45.6278 47.1189 46.4443C46.2442 47.2608 45.4114 47.7664 44.2444 48.1897C43.3635 48.5093 42.0398 48.8894 39.6023 48.9931C36.9665 49.1054 36.1759 49.1292 29.5002 49.1292C22.8244 49.1292 22.0338 49.1054 19.398 48.9931C16.9605 48.8894 15.6368 48.5093 14.7559 48.1897C13.5889 47.7664 12.7561 47.2608 11.8813 46.4443C11.0066 45.6278 10.4647 44.8505 10.0112 43.7614C9.66884 42.9392 9.26157 41.7037 9.15042 39.4287C9.03014 36.9683 9.00464 36.2303 9.00464 30.0001C9.00464 23.7698 9.03014 23.0318 9.15042 20.5714C9.26157 18.2964 9.66884 17.0609 10.0112 16.2387C10.4647 15.1496 11.0065 14.3723 11.8813 13.5558C12.7561 12.7393 13.5889 12.2337 14.7559 11.8104C15.6368 11.4908 16.9605 11.1107 19.398 11.007C22.0341 10.8947 22.8249 10.8709 29.5002 10.8709Z" fill="url(#paint0_linear_438_1518)"/>
</g>
<g filter="url(#filter1_d_438_1518)">
<path fill-rule="evenodd" clip-rule="evenodd" d="M29.5003 37.7778C24.8978 37.7778 21.1669 34.2956 21.1669 30.0001C21.1669 25.7044 24.8978 22.2222 29.5003 22.2222C34.1026 22.2222 37.8335 25.7044 37.8335 30.0001C37.8335 34.2956 34.1026 37.7778 29.5003 37.7778ZM29.5 18.0181C22.4098 18.0181 16.6621 23.3825 16.6621 30.0001C16.6621 36.6175 22.4098 41.982 29.5 41.982C36.5901 41.982 42.3378 36.6175 42.3378 30.0001C42.3378 23.3825 36.5901 18.0181 29.5 18.0181Z" fill="url(#paint1_linear_438_1518)"/>
</g>
<g filter="url(#filter2_d_438_1518)">
<path fill-rule="evenodd" clip-rule="evenodd" d="M45.8452 17.5447C45.8452 19.0911 44.502 20.3446 42.8452 20.3446C41.1884 20.3446 39.8452 19.0911 39.8452 17.5447C39.8452 15.9983 41.1884 14.7446 42.8452 14.7446C44.502 14.7446 45.8452 15.9983 45.8452 17.5447Z" fill="url(#paint2_linear_438_1518)"/>
</g>
<defs>
<filter id="filter0_d_438_1518" x="0.5" y="0.666748" width="58" height="54.6667" filterUnits="userSpaceOnUse" color-interpolation-filters="sRGB">
<feFlood flood-opacity="0" result="BackgroundImageFix"/>
<feColorMatrix in="SourceAlpha" type="matrix" values="0 0 0 0 0 0 0 0 0 0 0 0 0 0 0 0 0 0 127 0" result="hardAlpha"/>
<feOffset dy="-2"/>
<feGaussianBlur stdDeviation="2"/>
<feColorMatrix type="matrix" values="0 0 0 0 1 0 0 0 0 1 0 0 0 0 1 0 0 0 1 0"/>
<feBlend mode="normal" in2="BackgroundImageFix" result="effect1_dropShadow_438_1518"/>
<feBlend mode="normal" in="SourceGraphic" in2="effect1_dropShadow_438_1518" result="shape"/>
</filter>
<filter id="filter1_d_438_1518" x="12.6621" y="12.0181" width="33.6758" height="31.9639" filterUnits="userSpaceOnUse" color-interpolation-filters="sRGB">
<feFlood flood-opacity="0" result="BackgroundImageFix"/>
<feColorMatrix in="SourceAlpha" type="matrix" values="0 0 0 0 0 0 0 0 0 0 0 0 0 0 0 0 0 0 127 0" result="hardAlpha"/>
<feOffset dy="-2"/>
<feGaussianBlur stdDeviation="2"/>
<feColorMatrix type="matrix" values="0 0 0 0 1 0 0 0 0 1 0 0 0 0 1 0 0 0 1 0"/>
<feBlend mode="normal" in2="BackgroundImageFix" result="effect1_dropShadow_438_1518"/>
<feBlend mode="normal" in="SourceGraphic" in2="effect1_dropShadow_438_1518" result="shape"/>
</filter>
<filter id="filter2_d_438_1518" x="35.8452" y="8.74463" width="14" height="13.6001" filterUnits="userSpaceOnUse" color-interpolation-filters="sRGB">
<feFlood flood-opacity="0" result="BackgroundImageFix"/>
<feColorMatrix in="SourceAlpha" type="matrix" values="0 0 0 0 0 0 0 0 0 0 0 0 0 0 0 0 0 0 127 0" result="hardAlpha"/>
<feOffset dy="-2"/>
<feGaussianBlur stdDeviation="2"/>
<feColorMatrix type="matrix" values="0 0 0 0 1 0 0 0 0 1 0 0 0 0 1 0 0 0 1 0"/>
<feBlend mode="normal" in2="BackgroundImageFix" result="effect1_dropShadow_438_1518"/>
<feBlend mode="normal" in="SourceGraphic" in2="effect1_dropShadow_438_1518" result="shape"/>
</filter>
<linearGradient id="paint0_linear_438_1518" x1="29.5" y1="76.6667" x2="76.0558" y2="26.7855" gradientUnits="userSpaceOnUse">
<stop stop-color="#FFD522"/>
<stop offset="0.497382" stop-color="#F1000B"/>
<stop offset="1" stop-color="#B900B3"/>
</linearGradient>
<linearGradient id="paint1_linear_438_1518" x1="29.4999" y1="53.964" x2="53.407" y2="28.3493" gradientUnits="userSpaceOnUse">
<stop stop-color="#FFD522"/>
<stop offset="0.497382" stop-color="#F1000B"/>
<stop offset="1" stop-color="#B900B3"/>
</linearGradient>
<linearGradient id="paint2_linear_438_1518" x1="42.8452" y1="23.1446" x2="48.4319" y2="17.1589" gradientUnits="userSpaceOnUse">
<stop stop-color="#FFD522"/>
<stop offset="0.497382" stop-color="#F1000B"/>
<stop offset="1" stop-color="#B900B3"/>
</linearGradient>
</defs>
</svg>
