<svg width="25" height="27" viewBox="0 0 25 27" fill="none" xmlns="http://www.w3.org/2000/svg">
<path d="M16.5689 0.787735C14.3193 0.320931 12.5432 0.554333 11.7144 0.787735C11.3592 0.787735 6.97829 1.83804 3.78143 5.22238C-0.125838 9.30692 -0.717856 14.7919 0.70297 19.3432C0.821372 19.6933 1.17661 20.5102 1.17661 20.8603C1.88702 23.3111 -0.362649 24.5948 1.29498 26.2286C2.71581 27.5123 3.66305 26.1119 5.20227 25.8785C6.14949 25.6451 7.33351 25.7618 8.63593 25.9952C12.6616 26.5787 16.0953 26.5787 21.1866 21.4438C24.857 17.7094 25.5674 12.5746 24.6202 8.25661C24.5018 7.67311 24.0282 5.80588 23.9098 5.22238C23.4362 2.77165 25.2123 2.07145 23.673 0.671031C21.7786 -1.31289 21.0682 1.83805 16.5689 0.787735Z" fill="#F7E338"/>
</svg>
