<svg width="153" height="51" viewBox="0 0 153 51" fill="none" xmlns="http://www.w3.org/2000/svg">
<g clip-path="url(#clip0_0_307)">
<path d="M0 0H5.12685V20.2808H0V0Z" fill="#333333"/>
<path d="M8.44727 5.98181H13.5741V20.2809H8.44727V5.98181Z" fill="#333333"/>
<path d="M41.8936 12.1065V20.2808H36.7667V12.9168C36.7667 10.8672 35.9122 9.98547 34.5451 9.98547C33.0558 9.98547 31.9816 10.9626 31.9816 13.1789V20.2808H26.8548V12.9168C26.8548 10.8672 26.0247 9.98547 24.6332 9.98547C23.1195 9.98547 22.0453 10.9626 22.0453 13.1789V20.2808H16.9185V5.98173H21.8012V7.48313C22.8998 6.31537 24.4378 5.74341 26.1712 5.74341C28.1731 5.74341 29.8821 6.45836 30.9074 7.9836C32.0793 6.55369 33.8859 5.74341 35.9855 5.74341C39.379 5.74341 41.8936 7.67378 41.8936 12.1065Z" fill="#333333"/>
<path d="M44.4326 13.1074C44.4326 8.81771 47.9238 5.74341 52.7088 5.74341C57.5427 5.74341 60.985 8.79388 60.985 13.1074C60.985 17.421 57.5427 20.5191 52.7088 20.5191C47.9238 20.5191 44.4326 17.421 44.4326 13.1074ZM55.7849 13.1074C55.7849 10.9387 54.4666 9.72331 52.7088 9.72331C50.9755 9.72331 49.6327 10.9387 49.6327 13.1074C49.6327 15.2999 50.9755 16.5392 52.7088 16.5392C54.4422 16.5392 55.7849 15.2999 55.7849 13.1074Z" fill="#333333"/>
<path d="M78.9294 12.1065V20.2808H73.8025V12.9168C73.8025 10.8672 72.8748 9.98547 71.41 9.98547C69.7743 9.98547 68.5048 10.9864 68.5048 13.3696V20.2808H63.3779V5.98173H68.2606V7.53079C69.4325 6.3392 71.0682 5.74341 72.8992 5.74341C76.2927 5.74341 78.9294 7.67378 78.9294 12.1065Z" fill="#333333"/>
<path d="M11.0107 5.00467C12.4264 5.00467 13.5741 3.88434 13.5741 2.50234C13.5741 1.12033 12.4264 0 11.0107 0C9.59495 0 8.44727 1.12033 8.44727 2.50234C8.44727 3.88434 9.59495 5.00467 11.0107 5.00467Z" fill="#333333"/>
<path d="M85.2278 14.6804C84.7151 14.5612 84.3 14.6327 84.1047 14.6804C84.0315 14.7042 83.0061 14.9187 82.2737 15.6813C81.3704 16.6107 81.2483 17.8738 81.5657 18.8986C81.5901 18.9701 81.6634 19.1846 81.6878 19.2561C81.8587 19.8042 81.3216 20.114 81.7366 20.4715C82.0784 20.7813 82.2981 20.4477 82.6399 20.3762C82.8596 20.3285 83.1282 20.3523 83.4211 20.4C84.3489 20.5192 85.1301 20.5192 86.3264 19.3514C87.1808 18.4935 87.3273 17.3257 87.1076 16.3486C87.0832 16.2056 86.9611 15.7766 86.9611 15.6575C86.8635 15.0855 87.2541 14.9425 86.9123 14.6327C86.424 14.2037 86.2775 14.9425 85.2278 14.6804Z" fill="#F7E338"/>
<path d="M15.7712 38.8219C15.7712 43.2546 12.6218 46.0906 8.56917 46.0906C6.76256 46.0906 5.29775 45.5425 4.19914 44.3747V51H0V31.7677H4.00383V33.3883C5.05361 32.149 6.61608 31.5532 8.54476 31.5532C12.6218 31.5532 15.7712 34.3892 15.7712 38.8219ZM11.5232 38.8219C11.5232 36.3672 9.93633 34.9135 7.83676 34.9135C5.73719 34.9135 4.15031 36.3911 4.15031 38.8219C4.15031 41.2528 5.73719 42.7303 7.83676 42.7303C9.93633 42.7303 11.5232 41.2766 11.5232 38.8219Z" fill="#333333"/>
<path d="M27.5628 31.5532V35.3425C27.221 35.3186 26.9525 35.2948 26.6107 35.2948C24.2914 35.2948 22.7533 36.5341 22.7533 39.2271V45.8999H18.5542V31.7677H22.558V33.6266C23.6078 32.2682 25.3168 31.5532 27.5628 31.5532Z" fill="#333333"/>
<path d="M28.8569 38.8219C28.8569 34.556 32.226 31.5532 36.8158 31.5532C41.4055 31.5532 44.7502 34.5799 44.7502 38.8219C44.7502 43.0878 41.4055 46.0906 36.8158 46.0906C32.226 46.0906 28.8569 43.0878 28.8569 38.8219ZM40.5022 38.8219C40.5022 36.3672 38.9153 34.9135 36.8158 34.9135C34.7162 34.9135 33.1049 36.3911 33.1049 38.8219C33.1049 41.2528 34.7162 42.7303 36.8158 42.7303C38.9153 42.7303 40.5022 41.2766 40.5022 38.8219Z" fill="#333333"/>
<path d="M62.279 26.4056V45.9H58.2752V44.2795C57.2254 45.5187 55.6873 46.1145 53.7586 46.1145C49.6572 46.1145 46.5322 43.2785 46.5322 38.8458C46.5322 34.4131 49.6816 31.5771 53.7586 31.5771C55.5408 31.5771 57.0301 32.1253 58.0799 33.293V26.4295H62.279V26.4056ZM58.1775 38.822C58.1775 36.3673 56.5662 34.9136 54.4911 34.9136C52.3915 34.9136 50.7802 36.3912 50.7802 38.822C50.7802 41.2528 52.3915 42.7304 54.4911 42.7304C56.5662 42.7542 58.1775 41.2767 58.1775 38.822Z" fill="#333333"/>
<path d="M80.76 31.7677V45.9H76.7806V44.2079C75.6819 45.4472 74.0707 46.0906 72.2885 46.0906C68.6508 46.0906 66.1118 44.0888 66.1118 39.7275V31.7439H70.311V39.1317C70.311 41.4911 71.3852 42.5397 73.2406 42.5397C75.1693 42.5397 76.5853 41.3243 76.5853 38.7266V31.7439H80.76V31.7677Z" fill="#333333"/>
<path d="M83.5679 38.8219C83.5679 34.556 86.9369 31.5532 91.6488 31.5532C94.7005 31.5532 97.093 32.8401 98.1428 35.1518L94.8958 36.8677C94.1146 35.5331 92.9671 34.9135 91.6488 34.9135C89.5248 34.9135 87.8647 36.3672 87.8647 38.8219C87.8647 41.3004 89.5248 42.7303 91.6488 42.7303C92.9671 42.7303 94.1146 42.1584 94.8958 40.7761L98.1428 42.5158C97.093 44.7799 94.7005 46.0906 91.6488 46.0906C86.9369 46.1144 83.5679 43.0878 83.5679 38.8219Z" fill="#333333"/>
<path d="M110.105 45.2089C109.251 45.8047 107.981 46.0906 106.687 46.0906C103.269 46.0906 101.268 44.3748 101.268 41.0145V35.1995H99.0459V32.0537H101.268V28.6219H105.467V32.0537H109.08V35.1995H105.467V40.9906C105.467 42.2061 106.15 42.8495 107.273 42.8495C107.884 42.8495 108.518 42.6589 108.958 42.3252L110.105 45.2089Z" fill="#333333"/>
<path d="M111.961 27.5018C111.961 26.2149 113.011 25.214 114.573 25.214C116.136 25.214 117.185 26.1673 117.185 27.4303C117.185 28.7888 116.136 29.7897 114.573 29.7897C113.011 29.7897 111.961 28.7888 111.961 27.5018ZM112.474 31.7677H116.673V45.9H112.474V31.7677Z" fill="#333333"/>
<path d="M119.504 38.8219C119.504 34.556 122.873 31.5532 127.463 31.5532C132.053 31.5532 135.398 34.5799 135.398 38.8219C135.398 43.0878 132.053 46.0906 127.463 46.0906C122.873 46.0906 119.504 43.0878 119.504 38.8219ZM131.15 38.8219C131.15 36.3672 129.563 34.9135 127.463 34.9135C125.364 34.9135 123.752 36.3911 123.752 38.8219C123.752 41.2528 125.364 42.7303 127.463 42.7303C129.563 42.7303 131.15 41.2766 131.15 38.8219Z" fill="#333333"/>
<path d="M153 37.7972V45.8761H148.801V38.4168C148.801 36.1289 147.727 35.0804 145.871 35.0804C143.845 35.0804 142.405 36.2958 142.405 38.8934V45.8761H138.206V31.7439H142.209V33.3883C143.332 32.1729 145.041 31.5294 146.994 31.5294C150.412 31.5533 153 33.5075 153 37.7972Z" fill="#333333"/>
</g>
<defs>
<clipPath id="clip0_0_307">
<rect width="153" height="51" fill="white"/>
</clipPath>
</defs>
</svg>
