<svg width="153" height="51" viewBox="0 0 153 51" fill="none" xmlns="http://www.w3.org/2000/svg">
<path d="M0 0H5.02188V20.5887H0V0Z" fill="white"/>
<path d="M8.27393 6.07275H13.2958V20.5889H8.27393V6.07275Z" fill="white"/>
<path d="M41.036 12.2902V20.5886H36.0141V13.1128C36.0141 11.0322 35.1771 10.137 33.838 10.137C32.3792 10.137 31.327 11.129 31.327 13.379V20.5886H26.3052V13.1128C26.3052 11.0322 25.4921 10.137 24.129 10.137C22.6464 10.137 21.5941 11.129 21.5941 13.379V20.5886H16.5723V6.0725H21.355V7.5967C22.4311 6.41121 23.9377 5.83057 25.6356 5.83057C27.5965 5.83057 29.2705 6.55637 30.2748 8.10476C31.4227 6.65315 33.1923 5.83057 35.2489 5.83057C38.5729 5.83057 41.036 7.79024 41.036 12.2902Z" fill="white"/>
<path d="M43.5229 13.3064C43.5229 8.95153 46.9426 5.83057 51.6297 5.83057C56.3646 5.83057 59.7365 8.92734 59.7365 13.3064C59.7365 17.6854 56.3646 20.8306 51.6297 20.8306C46.9426 20.8306 43.5229 17.6854 43.5229 13.3064ZM54.6428 13.3064C54.6428 11.1048 53.3515 9.87089 51.6297 9.87089C49.9318 9.87089 48.6166 11.1048 48.6166 13.3064C48.6166 15.5322 49.9318 16.7902 51.6297 16.7902C53.3276 16.7902 54.6428 15.5322 54.6428 13.3064Z" fill="white"/>
<path d="M77.3131 12.2902V20.5886H72.2912V13.1128C72.2912 11.0322 71.3825 10.137 69.9477 10.137C68.3455 10.137 67.102 11.1531 67.102 13.5725V20.5886H62.0801V6.0725H66.8628V7.64508C68.0107 6.43541 69.6129 5.83057 71.4064 5.83057C74.7304 5.83057 77.3131 7.79024 77.3131 12.2902Z" fill="white"/>
<path d="M10.7849 5.08065C12.1716 5.08065 13.2958 3.9433 13.2958 2.54032C13.2958 1.13734 12.1716 0 10.7849 0C9.39811 0 8.27393 1.13734 8.27393 2.54032C8.27393 3.9433 9.39811 5.08065 10.7849 5.08065Z" fill="white"/>
<path d="M16.0701 38.6126C16.0701 43.2094 12.9374 46.0884 9.06334 46.0884C7.41329 46.0884 6.05021 45.5803 5.09366 44.5642V51.0239H0.0717773V31.4029H4.83061V32.8545C5.78716 31.7174 7.17415 31.1852 9.03942 31.1852C12.9374 31.1368 16.0701 34.0158 16.0701 38.6126ZM11.0243 38.6126C11.0243 36.4352 9.70901 35.1771 8.01113 35.1771C6.31326 35.1771 5.02192 36.4352 5.02192 38.6126C5.02192 40.79 6.33717 42.0481 8.03505 42.0481C9.73292 42.0481 11.0243 40.79 11.0243 38.6126Z" fill="white"/>
<path d="M27.9551 31.1367V35.6851C27.5008 35.6367 27.1899 35.6125 26.8312 35.6125C24.7985 35.6125 23.4115 36.6528 23.4115 39.1932V45.8222H18.3896V31.3787H23.1485V33.1206C24.2007 31.8141 25.8507 31.1367 27.9551 31.1367Z" fill="white"/>
<path d="M28.9834 38.5883C28.9834 34.2335 32.3791 31.1367 37.0423 31.1367C41.7533 31.1367 45.1013 34.2335 45.1013 38.5883C45.1013 42.9674 41.7533 46.0883 37.0423 46.0883C32.4031 46.0883 28.9834 42.9674 28.9834 38.5883ZM40.0555 38.5883C40.0555 36.4109 38.7641 35.177 37.0423 35.177C35.3444 35.177 34.0292 36.4109 34.0292 38.5883C34.0292 40.7899 35.3444 42.048 37.0423 42.048C38.7641 42.048 40.0555 40.7899 40.0555 38.5883Z" fill="white"/>
<path d="M62.6301 26.0564V45.8467H57.8713V44.3951C56.9147 45.5322 55.5278 46.0645 53.6864 46.0645C49.7885 46.0645 46.6558 43.1855 46.6558 38.5645C46.6558 33.9677 49.7885 31.1129 53.6864 31.1129C55.3364 31.1129 56.6995 31.5967 57.6322 32.6129V26.0322H62.6301V26.0564ZM57.7039 38.5887C57.7039 36.4113 56.4126 35.1774 54.7147 35.1774C52.9929 35.1774 51.7016 36.4113 51.7016 38.5887C51.7016 40.7903 52.9929 42.0484 54.7147 42.0484C56.4126 42.0484 57.7039 40.7903 57.7039 38.5887Z" fill="white"/>
<path d="M80.8523 31.3789V45.8225H76.0934V44.2741C75.0173 45.4837 73.4868 46.0644 71.8607 46.0644C68.3454 46.0644 65.8105 44.0321 65.8105 39.4596V31.3789H70.7846V38.637C70.7846 40.887 71.6455 41.7579 73.152 41.7579C74.6347 41.7579 75.8304 40.766 75.8304 38.3467V31.3789H80.8523Z" fill="white"/>
<path d="M83.1719 38.5883C83.1719 34.2335 86.5676 31.1367 91.3743 31.1367C94.6265 31.1367 97.0897 32.6125 98.0701 35.1045L94.1961 37.1125C93.5026 35.7577 92.4982 35.177 91.3504 35.177C89.6047 35.177 88.2416 36.4109 88.2416 38.5883C88.2416 40.8383 89.6047 42.048 91.3504 42.048C92.4982 42.048 93.5026 41.4674 94.1961 40.1125L98.0701 42.1206C97.0897 44.6367 94.6265 46.0883 91.3743 46.0883C86.5915 46.0883 83.1719 42.9916 83.1719 38.5883Z" fill="white"/>
<path d="M110.075 45.2416C109.214 45.798 107.923 46.0641 106.607 46.0641C102.949 46.0641 100.82 44.2496 100.82 40.548V35.6851H98.7397V31.8867H100.82V28.1367H105.818V31.8867H109.094V35.6851H105.818V40.4754C105.818 41.5399 106.416 42.1206 107.325 42.1206C107.875 42.1206 108.425 41.9512 108.855 41.6609L110.075 45.2416Z" fill="white"/>
<path d="M111.438 27.0966C111.438 25.5724 112.658 24.4111 114.499 24.4111C116.34 24.4111 117.56 25.4998 117.56 27.024C117.56 28.6208 116.34 29.8063 114.499 29.8063C112.658 29.8063 111.438 28.6208 111.438 27.0966ZM111.988 31.3789H116.986V45.8224H111.988V31.3789Z" fill="white"/>
<path d="M119.354 38.5883C119.354 34.2335 122.749 31.1367 127.412 31.1367C132.123 31.1367 135.471 34.2335 135.471 38.5883C135.471 42.9674 132.123 46.0883 127.412 46.0883C122.749 46.0883 119.354 42.9674 119.354 38.5883ZM130.402 38.5883C130.402 36.4109 129.11 35.177 127.389 35.177C125.691 35.177 124.375 36.4109 124.375 38.5883C124.375 40.7899 125.691 42.048 127.389 42.048C129.11 42.048 130.402 40.7899 130.402 38.5883Z" fill="white"/>
<path d="M153 37.5726V45.8468H148.002V38.3952C148.002 36.3146 147.117 35.4436 145.659 35.4436C144.056 35.4436 142.813 36.4597 142.813 38.8549V45.8468H137.815V31.4033H142.574V32.9759C143.698 31.7662 145.324 31.1614 147.117 31.1614C150.441 31.1372 153 33.0968 153 37.5726Z" fill="white"/>
<path d="M83.387 15.2175C82.9326 15.1207 82.5739 15.1691 82.4065 15.2175C82.3347 15.2175 81.4499 15.4352 80.8043 16.1369C80.0151 16.9836 79.8955 18.1207 80.1825 19.0643C80.2064 19.1369 80.2782 19.3062 80.2782 19.3788C80.4216 19.8869 79.9673 20.153 80.3021 20.4917C80.589 20.7578 80.7804 20.4675 81.0912 20.4191C81.2825 20.3707 81.5217 20.3949 81.7847 20.4433C82.5978 20.5643 83.2913 20.5643 84.3196 19.4998C85.0609 18.7256 85.2044 17.6611 85.0131 16.7659C84.9892 16.6449 84.8935 16.2578 84.8696 16.1369C84.7739 15.6288 85.1327 15.4836 84.8218 15.1933C84.4392 14.782 84.2957 15.4352 83.387 15.2175Z" fill="#F7E338"/>
</svg>
